<?xml version="1.0" encoding="utf-8"?>
<!-- Generator: Adobe Illustrator 18.0.0, SVG Export Plug-In . SVG Version: 6.00 Build 0)  -->
<!DOCTYPE svg PUBLIC "-//W3C//DTD SVG 1.1//EN" "http://www.w3.org/Graphics/SVG/1.1/DTD/svg11.dtd">
<svg version="1.1" id="Layer_1" xmlns="http://www.w3.org/2000/svg" xmlns:xlink="http://www.w3.org/1999/xlink" x="0px" y="0px"
	 viewBox="0 0 80 80" enable-background="new 0 0 80 80" xml:space="preserve">
<g>
	<circle fill="#FFFFFF" cx="37.4" cy="14.2" r="13.3"/>
	<path fill="#FFFFFF" d="M39.4,65.5c0-9.6,7.8-17.4,17.4-17.4c0.2,0,0.5,0,0.7,0l-1.5-15.4c0-3.1-2.6-5.7-5.7-5.7
		c-1.9,2.8-4.9,4.7-8.2,5.2c-3.1,0.5-6.3,0.5-9.4,0c-3.3-0.6-6.3-2.5-8.2-5.2l0,0c-3.1,0-5.7,2.6-5.7,5.7L15.7,65
		c0,3.1,2.6,5.7,5.7,5.7h18.9C39.7,69.1,39.4,67.4,39.4,65.5z"/>
</g>
<path fill="#FFFFFF" d="M69.5,61.7h-2.1c-0.1-0.4-0.3-0.7-0.4-1l1.5-1.5c0.3-0.3,0.3-0.8,0-1.2l-4.2-4.2c-0.3-0.3-0.8-0.3-1.2,0
	l-1.5,1.5c-0.3-0.2-0.7-0.3-1-0.4v-2.2c0-0.4-0.4-0.8-0.8-0.8h-6c-0.4,0-0.8,0.4-0.8,0.8v2.1c-0.4,0.1-0.7,0.3-1,0.4l-1.5-1.5
	c-0.3-0.3-0.8-0.3-1.2,0L45.3,58c-0.3,0.3-0.3,0.8,0,1.2l1.5,1.5c-0.2,0.3-0.3,0.7-0.4,1.1h-2.1c-0.4,0-0.8,0.4-0.8,0.8v6
	c0,0.4,0.4,0.8,0.8,0.8h2.1c0.1,0.4,0.3,0.7,0.4,1.1l-1.5,1.5c-0.3,0.3-0.3,0.8,0,1.2l4.2,4.2c0.3,0.3,0.8,0.3,1.2,0l1.5-1.5
	c0.3,0.2,0.7,0.3,1,0.4v2.2c0,0.4,0.4,0.8,0.8,0.8h6c0.4,0,0.8-0.4,0.8-0.8v-2.2c0.4-0.1,0.7-0.3,1-0.4l1.5,1.5
	c0.3,0.3,0.8,0.3,1.2,0l4.2-4.2c0.3-0.3,0.3-0.8,0-1.2L67,70.4c0.2-0.3,0.3-0.7,0.4-1h2.1c0.4,0,0.8-0.4,0.8-0.8v-6
	C70.3,62.1,70,61.7,69.5,61.7z M56.9,72.5c-3.8,0-6.9-3.1-6.9-7c0-3.8,3.1-7,6.9-7c3.8,0,6.9,3.1,6.9,7
	C63.7,69.4,60.6,72.5,56.9,72.5z"/>
</svg>
