<?xml version="1.0" encoding="utf-8"?>
<!-- Generator: Adobe Illustrator 18.0.0, SVG Export Plug-In . SVG Version: 6.00 Build 0)  -->
<!DOCTYPE svg PUBLIC "-//W3C//DTD SVG 1.1//EN" "http://www.w3.org/Graphics/SVG/1.1/DTD/svg11.dtd">
<svg version="1.1" id="Layer_1" xmlns="http://www.w3.org/2000/svg" xmlns:xlink="http://www.w3.org/1999/xlink" x="0px" y="0px"
	 viewBox="0 0 80 80" enable-background="new 0 0 80 80" xml:space="preserve">
<path fill="none" stroke="#FFFFFF" stroke-width="2.9049" stroke-miterlimit="10" d="M67.4,72.6L55.1,47.9L48.8,35
	c-2-4-3-8.3-3-12.7V8h3.9c1.8,0,3.2-1.4,3.2-3.2s-1.4-3.2-3.2-3.2H30.3c-1.8,0-3.2,1.4-3.2,3.2S28.6,8,30.3,8h3.9v14.3
	c0,4.4-1,8.8-3,12.7l-6.4,12.8L12.6,72.6c-1.3,2.7,0.6,5.8,3.6,5.8H40h23.8C66.8,78.4,68.7,75.3,67.4,72.6z"/>
<path fill="#FFFFFF" d="M40,47.9h15.1l12.3,24.7c1.3,2.7-0.6,5.8-3.6,5.8H40H16.2c-3,0-4.9-3.1-3.6-5.8l12.3-24.7H40z"/>
<circle fill="#FFFFFF" cx="35.9" cy="42.5" r="1.5"/>
<circle fill="#FFFFFF" cx="41.3" cy="36.1" r="1.8"/>
</svg>
