<?xml version="1.0" encoding="utf-8"?>
<!-- Generator: Adobe Illustrator 18.0.0, SVG Export Plug-In . SVG Version: 6.00 Build 0)  -->
<!DOCTYPE svg PUBLIC "-//W3C//DTD SVG 1.1//EN" "http://www.w3.org/Graphics/SVG/1.1/DTD/svg11.dtd">
<svg version="1.1" id="Layer_1" xmlns="http://www.w3.org/2000/svg" xmlns:xlink="http://www.w3.org/1999/xlink" x="0px" y="0px"
	 viewBox="0 0 800 800" enable-background="new 0 0 800 800" xml:space="preserve">
<g>
	<path fill="#FFFFFF" d="M516.7,28.8c0,0,0.3,0.3,0.8,1c0.5,0.7,1.2,1.7,2.2,3.1c1.9,2.7,4.8,6.8,8.3,12.2c1.8,2.7,3.7,5.8,5.9,9.1
		c2.1,3.4,4.4,7.1,6.8,11.1c4.9,8,10.2,17.4,16.1,28.1c5.9,10.6,11.9,22.6,18.3,35.8c1.6,3.3,3.2,6.7,4.8,10.1
		c1.6,3.4,3.2,7,4.8,10.6c3.3,7.2,6.4,14.8,9.8,22.6c1.6,3.9,3.3,7.9,4.9,12c1.7,4.1,3.2,8.2,4.8,12.5c3.3,8.4,6.3,17.2,9.5,26.3
		c1.5,4.5,3.1,9.1,4.6,13.8c0.8,2.3,1.5,4.7,2.2,7.1c0.7,2.4,1.4,4.8,2.2,7.2c0.7,2.4,1.5,4.8,2.2,7.3c0.7,2.5,1.4,4.9,2.1,7.4
		c0.7,2.5,1.4,5,2.1,7.5c0.7,2.5,1.4,5,2,7.6c10.5,40.9,19.1,86.4,22.1,135.6c0.2,3.1,0.4,6.2,0.6,9.3c0.1,3.1,0.2,6.2,0.3,9.3
		c0.2,6.3,0.5,12.5,0.4,18.9c0,3.2,0,6.4,0,9.6c0,1.6,0,3.2,0,4.8l0,1.2l0,0.6c0,0.4,0-0.2,0,1.2l-0.1,2.3c-0.1,1.5-0.1,3-0.2,4.6
		c-0.1,1.6-0.1,2.9-0.2,4.9c-0.1,1.8-0.3,3.6-0.4,5.4l-0.2,2.7c-0.1,0.9-0.1,1.8-0.2,2.7c-0.4,3.4-0.7,6.9-1.1,10.4
		c-0.5,3.5-0.9,6.9-1.4,10.4c-0.6,3.5-1.2,7-1.9,10.4c-0.7,3.5-1.4,7-2.3,10.5c-3.3,13.9-7.6,27.9-12.9,41.6
		c-10.7,27.5-26.2,53.8-45.2,77.3l-3.6,4.4l-3.7,4.3l-1.9,2.1l-1.9,2.1l-3.8,4.2c-5.2,5.5-10.6,10.9-16.1,16
		c-5.6,5.1-11.3,10.1-17.2,14.9c-2.9,2.4-5.9,4.7-8.9,7c-3,2.3-6,4.6-9.1,6.7c-6.1,4.4-12.4,8.6-18.8,12.6
		c-6.4,4-12.9,7.8-19.4,11.5c-13.1,7.3-26.6,13.8-40.4,19.7c-13.8,5.9-27.8,11.1-42.2,15.6c-7.2,2.3-14.4,4.3-21.8,6.2
		c-3.7,0.9-7.4,1.9-11.3,2.7l-2.9,0.6l-1.5,0.3l-1,0.2l-1.8,0.3c-4,0.7-8,1-12,1.1c-1,0-2,0-3,0l-1.9-0.1l-1.1-0.1l-1.6-0.1
		l-1.6-0.1l-1.5-0.2c-4-0.5-7.9-1.3-11.8-2.4c-1.9-0.6-3.8-1.2-5.7-1.9l-1.5-0.6l-0.6-0.2l-1.2-0.5l-1.3-0.5l-1.6-0.7l-1.6-0.7
		l-1.6-0.7c-7.7-3.4-15-7.2-22.1-11.2c-7.1-4-13.9-8.4-20.5-12.9l-4.9-3.5l-2.4-1.8l-2.4-1.8l-4.8-3.7c-1.6-1.2-3.1-2.5-4.6-3.8
		c-6.2-5.1-12.1-10.5-17.8-16c-2.9-2.8-5.6-5.7-8.3-8.6c-2.7-2.9-5.3-5.9-8-8.9c-10.3-12-19.7-24.9-27.7-38.3
		c-8.1-13.4-15.1-27.3-21-41.5c-5.7-14.2-10.4-28.7-14.2-43.1c-0.9-3.6-1.7-7.3-2.5-10.9l-1.2-5.4c-0.4-1.8-0.7-3.6-1-5.4
		c-0.6-3.6-1.3-7.2-1.9-10.8c-0.6-3.6-1-7.2-1.5-10.8c-1.9-14.4-2.6-28.6-3-42.6c-0.1-1.8,0-3.5,0-5.2c0-1.7,0-3.5,0-5.2
		c0-3.5,0.1-6.9,0.1-10.4c0,0.4,0-1.2,0-1.3l0-0.6l0.1-1.2l0.1-2.4c0.1-1.6,0.2-3.2,0.2-4.7l0.1-1.2l0.1-1.4l0.2-2.8
		c0.1-1.9,0.3-3.7,0.4-5.6c0.1-0.9,0.1-1.9,0.2-2.7l0.3-2.6c0.2-1.7,0.4-3.5,0.6-5.2c0.3-3.5,0.9-6.9,1.4-10.3
		c0.3-1.7,0.5-3.4,0.8-5.1c0.3-1.7,0.6-3.4,0.9-5c0.3-1.7,0.6-3.4,0.9-5c0.3-1.7,0.7-3.3,1-5c2.8-13.2,6.1-26.1,9.9-38.5
		c1.9-6.2,3.9-12.3,6-18.3c1-3,2.1-6,3.2-8.9c1.1-2.9,2.2-5.9,3.4-8.8c4.6-11.6,9.5-22.8,14.6-33.7c2.5-5.4,5.2-10.8,7.8-16
		c2.7-5.2,5.4-10.4,8.1-15.4c2.7-5.1,5.6-10,8.3-14.9c2.8-4.9,5.6-9.7,8.5-14.4c5.7-9.5,11.4-18.6,17.3-27.4
		c11.7-17.6,23.4-33.9,35.1-49.1c5.9-7.5,11.6-14.8,17.3-21.8c2.8-3.5,5.7-6.9,8.5-10.3c2.8-3.3,5.6-6.6,8.4-9.8
		c11.1-12.8,21.6-24.6,31.7-35.2c10.1-10.6,19.4-20.2,28.1-28.6c4.3-4.2,8.5-8.2,12.4-11.9c3.9-3.7,7.6-7.1,11.1-10.3
		c6.9-6.3,12.9-11.6,17.9-15.8c4.9-4.2,8.8-7.3,11.4-9.4c2.6-2.1,4-3.2,4-3.2l3.4,3.4c0,0-1.2,1.2-3.5,3.6c-2.3,2.4-5.6,5.9-10,10.6
		c-8.6,9.4-21.1,23.3-36.4,41.6c-15.3,18.3-33.3,40.9-52.8,67.8c-19.4,26.9-40.3,58-60.7,93.3c-5.1,8.8-10.1,17.9-15,27.3
		c-2.5,4.7-4.9,9.5-7.3,14.3c-2.4,4.8-4.8,9.7-7.1,14.7c-4.7,9.9-9.2,20.1-13.5,30.6c-4.3,10.5-8.4,21.2-12.1,32.2
		c-15,44-25.1,92.6-22.1,143.2c1.2,25.3,4.8,50.8,11.6,75.9c3.5,12.5,7.8,24.8,12.9,36.9c5.2,12,11.3,23.7,18.3,34.9
		c13.9,22.4,31.6,42.7,52.3,59.5l3.9,3.1l4,3l2,1.5l2,1.4l4.1,2.9c5.5,3.7,11.2,7.3,17,10.6c5.8,3.3,11.8,6.3,17.8,9
		c1.5,0.7,3,1.3,4.6,1.9l2.3,0.9c0.7,0.3,1.4,0.5,2.1,0.7c1.4,0.4,2.8,0.7,4.3,0.9c0.8,0.1,1.4,0.1,2.2,0.2c0.9,0,1.5,0.1,2.3,0.1
		c1.4,0,2.9-0.1,4.3-0.4c0.6-0.1,1.5-0.3,2.3-0.5l2.5-0.5c3.3-0.7,6.5-1.5,9.8-2.3c6.5-1.7,13-3.5,19.4-5.5
		c12.9-4,25.5-8.6,37.9-13.8c24.8-10.4,48.5-23,70.3-38.1c21.8-15.1,41.6-32.6,58.3-52.4c16.7-19.8,30.3-41.7,40.1-64.9
		c4.9-11.6,8.9-23.4,12.1-35.3c3.1-11.9,5.5-24,7-36c0.4-3,0.7-6,1-9c0.3-3,0.5-6.1,0.8-9.1l0.2-2.3l0.1-2.2c0.1-1.5,0.1-3,0.2-4.5
		c0.1-3,0.3-6,0.4-9c0.4-6,0.3-11.9,0.4-17.8c0-3,0.1-5.9,0.1-8.8c-0.1-2.9-0.1-5.9-0.2-8.8c-0.1-2.9-0.1-5.8-0.2-8.7
		c0-1.4-0.1-2.9-0.1-4.3c-0.1-1.4-0.1-2.9-0.2-4.3c-0.3-5.7-0.6-11.4-0.9-17.1c-0.5-5.6-0.9-11.2-1.3-16.8c-0.2-2.8-0.5-5.5-0.8-8.3
		c-0.3-2.8-0.6-5.5-0.9-8.2c-0.3-2.7-0.6-5.4-0.9-8.1c-0.4-2.7-0.7-5.4-1.1-8.1c-0.7-5.3-1.4-10.7-2.3-15.9
		c-0.8-5.2-1.6-10.4-2.5-15.5c-0.9-5.1-1.9-10.2-2.8-15.2c-3.9-20-8.3-39-12.9-57c-4.7-18-9.7-34.9-14.7-50.7
		c-5.1-15.8-10.2-30.4-15.2-43.9c-5-13.4-9.9-25.7-14.5-36.7c-9.2-22-17.2-38.9-22.9-50.3c-2.8-5.7-5.1-10-6.6-12.9
		c-0.8-1.4-1.4-2.5-1.8-3.3c-0.4-0.7-0.6-1.1-0.6-1.1L516.7,28.8z"/>
</g>
<g>
	<path fill="#FFFFFF" d="M341.2,588.1c0,0,0-0.4,0.1-1.2c0-0.8,0.1-2,0.2-3.6c0.1-1.6,0.2-3.5,0.4-5.7c0.1-1.1,0.2-2.3,0.2-3.6
		c0.1-1.3,0.2-2.6,0.3-4c0.5-5.7,1.2-12.6,2.1-20.4c0.4-3.9,1-8,1.5-12.4c0.2-2.2,0.6-4.4,0.9-6.6c0.3-2.3,0.6-4.6,1-6.9
		c0.3-2.4,0.8-4.7,1.1-7.2c0.4-2.4,0.8-4.9,1.2-7.5c0.8-5.1,1.7-10.2,2.6-15.6c1.9-10.6,4-21.8,6.2-33.3c2.3-11.5,4.7-23.3,7.4-35.2
		c1.3-6,2.6-12,4-18c1.3-6,2.8-12,4.2-18.1c1.4-6,2.9-12,4.3-18c0.7-3,1.4-6,2.2-9c0.7-3,1.4-6,2.2-8.9c1.5-5.9,2.9-11.8,4.4-17.6
		c1.5-5.8,2.9-11.5,4.4-17.1c2.9-11.2,5.9-22.1,8.6-32.5c0.7-2.6,1.5-5.1,2.1-7.6c0.7-2.5,1.3-5,2-7.4c0.7-2.4,1.4-4.8,2.1-7.2
		c0.7-2.4,1.2-4.7,1.9-6.9c2.6-9.1,5-17.5,7.2-24.9c2.2-7.5,4.1-14,6-19.5c0.4-1.4,0.8-2.6,1.2-3.9c0.4-1.2,0.8-2.4,1.1-3.4
		c0.7-2.1,1.3-3.9,1.8-5.4c0.5-1.5,0.9-2.6,1.2-3.4c0.3-0.8,0.4-1.2,0.4-1.2h3.2c0,0,0,6.4,0,17.5c-0.1,2.8-0.2,5.9-0.2,9.2
		c0,1.7-0.1,3.4-0.1,5.2c0,0.9,0,1.8-0.1,2.8c0,0.9-0.1,1.9-0.1,2.9c-0.2,3.9-0.4,8-0.6,12.3c-0.1,2.2-0.3,4.4-0.5,6.7
		c-0.2,2.3-0.4,4.6-0.6,7c-0.2,2.4-0.4,4.8-0.6,7.3c-0.3,2.5-0.5,5-0.8,7.5c-0.3,2.6-0.5,5.2-0.8,7.8c-0.3,2.6-0.6,5.3-1,8
		c-0.7,5.4-1.3,11-2.2,16.7c-0.8,5.7-1.6,11.5-2.7,17.3c-1,5.9-1.9,11.8-3.1,17.9c-0.6,3-1.1,6-1.7,9.1c-0.6,3-1.2,6.1-1.8,9.2
		c-0.6,3.1-1.2,6.1-1.8,9.2c-0.7,3.1-1.3,6.2-2,9.3c-1.3,6.2-2.7,12.4-4.2,18.6c-0.7,3.1-1.5,6.2-2.2,9.3c-0.8,3.1-1.5,6.2-2.3,9.2
		c-1.6,6.1-3.2,12.2-4.8,18.3c-3.3,12.1-6.6,23.9-10,35.3c-3.3,11.4-6.8,22.4-10.2,32.7c-3.4,10.4-6.7,20.1-9.9,29.1
		c-3.1,9-6.2,17.2-8.9,24.4c-2.7,7.2-5.2,13.5-7.2,18.7c-4.1,10.3-6.6,16.2-6.6,16.2L341.2,588.1z"/>
</g>
<g>
	<path fill="#FFFFFF" d="M464.8,478.9c0,0-0.1,0.1-0.4,0.3c-0.2,0.2-0.6,0.5-1.1,0.8c-0.9,0.7-2.3,1.7-4,2.8
		c-0.8,0.6-1.6,1.2-2.5,1.9c-0.9,0.7-1.8,1.3-2.8,2.1c-2,1.4-4.2,3-6.6,4.8c-1.2,0.8-2.4,1.8-3.6,2.6c-1.2,0.9-2.5,1.8-3.8,2.7
		c-0.6,0.5-1.3,0.9-2,1.3c-0.7,0.5-1.3,0.9-2,1.4c-0.7,0.5-1.3,0.9-2,1.3c-0.7,0.5-1.4,0.9-2.1,1.4c-2.8,1.8-5.6,3.7-8.6,5.4
		c-1.5,0.9-3,1.8-4.5,2.7c-1.5,0.9-3.1,1.8-4.6,2.6c-3.1,1.8-6.3,3.4-9.4,5c-3.2,1.6-6.4,3.2-9.6,4.6c-3.2,1.4-6.4,2.7-9.6,3.9
		c-3.2,1.2-6.2,2.3-9.2,3.2c-2.9,0.9-5.7,1.7-8.3,2.4c-2.6,0.6-4.9,1.2-6.9,1.6c-1,0.2-1.9,0.4-2.7,0.5c-0.8,0.1-1.5,0.2-2.1,0.3
		c-0.6,0.1-1,0.1-1.3,0.2c-0.3,0-0.5,0.1-0.5,0.1l-1.7-1.6c0,0,0.3-0.4,1-1.1c0.6-0.7,1.6-1.7,2.8-3c2.5-2.5,6-6.1,10.5-10.1
		c2.3-2,4.7-4.1,7.4-6.3c2.7-2.2,5.5-4.4,8.6-6.7c3.1-2.2,6.2-4.4,9.6-6.6c3.3-2.2,6.8-4.3,10.2-6.3c1.8-1,3.5-1.9,5.3-2.8
		c1.8-0.9,3.6-1.8,5.4-2.6c3.6-1.7,7.2-3.2,10.8-4.5c1.8-0.7,3.5-1.3,5.3-1.8c0.9-0.3,1.7-0.5,2.6-0.8c0.9-0.3,1.7-0.5,2.5-0.7
		c1.7-0.5,3.3-0.9,4.9-1.2c1.6-0.3,3.1-0.7,4.6-0.9c1.5-0.2,2.9-0.5,4.3-0.7c1.4-0.1,2.7-0.3,3.9-0.4c1.2-0.2,2.4-0.2,3.5-0.2
		c1.1,0,2.1-0.1,2.9-0.1c1.7,0,3.1,0.1,4,0.1c0.9,0,1.4,0,1.4,0L464.8,478.9z"/>
</g>
<g>
	<path fill="#FFFFFF" d="M358.2,528.8c0,0-0.5-0.5-1.3-1.3c-0.4-0.4-0.9-1-1.5-1.6c-0.6-0.6-1.2-1.3-1.9-2.1
		c-1.4-1.6-3.1-3.5-4.9-5.6c-0.9-1.1-1.8-2.2-2.8-3.4c-1-1.2-1.9-2.4-2.9-3.7c-2-2.5-4.1-5.3-6.2-8.1c-2.1-2.8-4.2-5.8-6.3-8.8
		c-1-1.5-2.1-3-3.1-4.6c-0.5-0.8-1-1.5-1.6-2.3c-0.5-0.8-1-1.6-1.5-2.3c-1-1.5-2-3.1-3.1-4.7c-0.5-0.8-1-1.5-1.5-2.4l-1.5-2.3
		c-2-3.1-4-6.2-5.9-9.3c-0.5-0.8-1-1.5-1.5-2.3c-0.5-0.8-0.9-1.5-1.4-2.3c-1-1.5-1.9-3-2.8-4.5c-1-1.5-1.9-2.9-2.8-4.4
		c-0.5-0.7-0.9-1.4-1.4-2.2c-0.5-0.7-0.9-1.4-1.3-2.2c-0.9-1.4-1.8-2.8-2.6-4.2c-0.9-1.4-1.7-2.7-2.5-4.1c-0.4-0.7-0.8-1.4-1.2-2
		c-0.4-0.6-0.8-1.2-1.2-1.9c-0.8-1.3-1.5-2.5-2.2-3.6c-1.5-2.3-2.7-4.4-3.8-6.2c-0.6-0.9-1.1-1.7-1.5-2.4c-0.4-0.7-0.8-1.4-1.1-1.9
		c-0.3-0.5-0.5-1-0.7-1.2c-0.2-0.3-0.2-0.4-0.2-0.4l0.9-2.1c0,0,2,0.9,5.5,2.5c1.7,0.8,3.7,2,6.1,3.2c1.2,0.6,2.4,1.4,3.6,2.2
		c1.3,0.8,2.6,1.6,3.9,2.6c1.3,1,2.8,1.9,4.2,3c1.4,1.1,2.8,2.2,4.3,3.4c1.4,1.2,2.9,2.5,4.4,3.8c1.5,1.3,2.9,2.8,4.3,4.2
		c1.4,1.5,2.8,3,4.3,4.6c1.4,1.6,2.8,3.2,4.1,4.9c2.7,3.4,5.3,6.9,7.6,10.6l1.8,2.8l1.6,2.8c1.1,1.9,2.1,3.8,3.1,5.7
		c1,1.9,1.9,3.8,2.9,5.7c0.9,1.9,1.8,3.8,2.6,5.7c1.7,3.7,3,7.5,4.2,11c1.2,3.6,2.2,6.9,3.1,10.1c0.9,3.1,1.5,6.1,2.1,8.7
		c0.5,2.6,1,4.9,1.3,6.8c0.3,1.9,0.5,3.4,0.6,4.4c0.1,1,0.2,1.6,0.2,1.6L358.2,528.8z"/>
</g>
<g>
	<path fill="#FFFFFF" d="M393.9,396.3c0,0,0-0.1,0-0.4c0-0.3,0-0.7,0-1.2c0-1.1,0.1-2.6,0.4-4.4c0.3-1.9,0.8-4,1.5-6.4
		c0.4-1.2,0.8-2.4,1.3-3.7c0.5-1.3,1.1-2.5,1.8-3.9c1.3-2.7,3-5.4,5-8c2-2.7,4.4-5.3,7-7.7c2.7-2.4,5.7-4.8,8.9-6.8
		c1.6-1,3.3-2,5.1-2.8c1.7-0.9,3.6-1.6,5.4-2.4c1.8-0.7,3.7-1.3,5.6-1.9c0.9-0.3,1.9-0.5,2.9-0.7c1-0.2,1.9-0.5,2.9-0.6
		c1.9-0.3,3.9-0.6,5.8-0.7c1.9-0.1,3.8-0.2,5.7-0.1c3.8,0.1,7.4,0.6,10.8,1.4c1.7,0.4,3.3,0.9,4.9,1.4c1.5,0.6,3,1.2,4.4,1.8
		c2.8,1.3,5.2,2.7,7.2,4.2c1,0.8,2,1.4,2.8,2.2c0.8,0.7,1.6,1.3,2.3,2.1c0.7,0.7,1.2,1.3,1.7,1.9c0.5,0.5,0.9,1,1.2,1.5
		c0.3,0.4,0.6,0.7,0.7,1c0.2,0.2,0.2,0.3,0.2,0.3l-0.5,2.2c0,0-1.6-0.2-4.4-0.6c-1.4-0.2-3.1-0.3-5.1-0.5c-1-0.1-2-0.1-3.1-0.1
		c-1.1,0-2.3-0.1-3.5-0.1c-1.2,0-2.5,0-3.8,0.1c-1.3,0.1-2.6,0.2-4,0.3c-2.7,0.3-5.6,0.6-8.6,1.1c-3,0.5-6,1.2-9,2
		c-1.5,0.4-3,0.9-4.6,1.4c-1.5,0.6-3,1-4.5,1.7c-1.5,0.6-3,1.1-4.5,1.8c-0.7,0.3-1.5,0.6-2.2,1c-0.7,0.3-1.4,0.7-2.1,1
		c-2.9,1.4-5.6,2.9-8.2,4.4c-2.6,1.6-5.1,3.1-7.4,4.7c-2.3,1.6-4.4,3.1-6.3,4.6c-1.9,1.5-3.6,2.9-5.1,4.2c-1.5,1.3-2.8,2.4-3.8,3.4
		c-1,1-1.8,1.7-2.4,2.3c-0.5,0.5-0.8,0.8-0.8,0.8L393.9,396.3z"/>
</g>
<g>
	<path fill="#FFFFFF" d="M396.7,390.9c0,0-0.5-0.4-1.5-1c-0.5-0.3-1-0.7-1.7-1.2c-0.6-0.5-1.4-1.1-2.1-1.7c-1.6-1.3-3.4-2.8-5.4-4.5
		c-1-0.9-2-1.8-3-2.8c-1.1-1-2.1-2-3.2-3.1c-2.2-2.2-4.4-4.5-6.6-6.9c-2.2-2.5-4.4-5.1-6.6-7.7c-2.2-2.7-4.4-5.4-6.4-8.2
		c-2.1-2.8-4.1-5.6-6.1-8.4l-1.4-2.1c-0.5-0.7-1-1.4-1.4-2.1l-0.7-1c-0.2-0.4-0.5-0.7-0.7-1c-0.5-0.7-1-1.3-1.4-2l-0.7-1
		c-0.2-0.3-0.5-0.6-0.7-1c-0.4-0.7-0.9-1.3-1.3-2c-0.4-0.7-0.9-1.3-1.3-2c-0.4-0.6-0.8-1.3-1.3-2c-0.9-1.2-1.7-2.5-2.5-3.8
		c-0.9-1.2-1.6-2.5-2.4-3.7c-0.8-1.2-1.6-2.4-2.4-3.6c-0.8-1.1-1.6-2.3-2.3-3.4c-0.8-1.1-1.6-2.1-2.3-3.2c-0.7-1.1-1.6-2-2.3-3
		c-0.4-0.5-0.7-1-1.1-1.4c-0.4-0.4-0.7-0.9-1.1-1.3c-0.7-0.9-1.4-1.6-2-2.4c-1.2-1.4-2.3-2.6-3-3.5c-0.7-0.9-1.1-1.4-1.1-1.4
		l0.4-2.2c0,0,0.5,0.1,1.4,0.3c0.9,0.2,2.3,0.4,4,0.8c0.9,0.2,1.8,0.5,2.8,0.8c0.5,0.1,1.1,0.3,1.6,0.5c0.5,0.2,1.1,0.4,1.7,0.6
		c1.2,0.5,2.4,0.9,3.7,1.4c1.3,0.6,2.6,1.2,3.9,1.9c1.3,0.7,2.7,1.5,4.1,2.4c1.4,0.8,2.8,1.8,4.2,2.8c1.4,1,2.8,2.1,4.3,3.2
		c1.4,1.2,2.8,2.4,4.2,3.7c1.3,1.3,2.8,2.7,4.1,4.1c0.7,0.7,1.3,1.4,2,2.2l1,1.1l1,1.1c1.3,1.5,2.6,3,3.8,4.6l1.8,2.4l1.8,2.4
		c2.3,3.3,4.4,6.7,6.5,10.1c2,3.4,3.9,6.8,5.6,10.2c1.7,3.3,3.2,6.6,4.6,9.8c1.4,3.2,2.6,6.2,3.6,9c2.1,5.6,3.6,10.4,4.6,13.7
		c1,3.3,1.4,5.3,1.4,5.3L396.7,390.9z"/>
</g>
<g>
	<path fill="#FFFFFF" d="M417.2,281.4c0,0,0-0.1-0.1-0.3c-0.1-0.2-0.2-0.6-0.3-1c-0.1-0.4-0.3-0.9-0.4-1.5c-0.2-0.6-0.3-1.3-0.4-2
		c-0.3-1.5-0.4-3.2-0.5-5.1c-0.1-1,0-1.9,0-3c0-1.1,0.2-2.1,0.3-3.2c0.3-2.2,0.8-4.4,1.6-6.7c0.8-2.3,1.8-4.5,3.1-6.7
		c1.3-2.2,2.8-4.3,4.6-6.2c1.8-1.9,3.9-3.8,6.1-5.4c2.2-1.6,4.7-3,7.3-4.1c1.3-0.5,2.6-1,4-1.4c1.4-0.4,2.7-0.7,4.1-1
		c2.8-0.5,5.6-0.7,8.3-0.5c2.7,0.2,5.3,0.7,7.6,1.4c1.2,0.4,2.3,0.8,3.3,1.3c1,0.5,2,1,2.9,1.5c0.9,0.5,1.7,1.1,2.4,1.7
		c0.7,0.6,1.3,1.1,1.9,1.6c0.6,0.5,1,1.1,1.4,1.5c0.4,0.5,0.7,0.9,1,1.2c0.3,0.3,0.4,0.7,0.6,0.8c0.1,0.2,0.2,0.3,0.2,0.3L476,247
		c0,0-1.1,0.1-3,0.1c-0.9,0.1-2.1,0.2-3.4,0.4c-0.6,0.1-1.3,0.2-2,0.4c-0.7,0.2-1.5,0.3-2.2,0.5c-1.6,0.4-3.2,0.9-4.9,1.5
		c-1.7,0.6-3.5,1.4-5.3,2.3c-1.8,0.9-3.6,1.9-5.5,2.9c-1.8,1.1-3.6,2.3-5.4,3.6c-1.8,1.2-3.5,2.5-5.2,3.9c-1.7,1.3-3.3,2.7-4.8,4.1
		c-1.5,1.4-3,2.7-4.3,4c-1.4,1.3-2.6,2.6-3.7,3.8c-1.1,1.2-2.1,2.3-3.1,3.3c-0.9,1-1.7,1.9-2.3,2.6c-0.6,0.7-1.1,1.3-1.4,1.7
		c-0.3,0.4-0.5,0.6-0.5,0.6L417.2,281.4z"/>
</g>
<g>
	<path fill="#FFFFFF" d="M417,276.7c0,0-0.4-0.2-1.2-0.5c-0.4-0.2-0.8-0.3-1.3-0.6c-0.5-0.2-1.1-0.5-1.7-0.8c-1.2-0.6-2.6-1.2-4.1-2
		c-0.8-0.4-1.4-0.8-2.2-1.2c-0.8-0.4-1.5-0.9-2.3-1.3c-1.5-0.9-3-1.8-4.4-2.8c-1.4-1-2.7-2-3.9-3.1c-1.2-1.1-2.3-2.1-3.2-3.2
		c-0.9-1.1-1.7-2.2-2.4-3.3c-0.7-1.1-1.2-2.2-1.6-3.4c-0.1-0.3-0.2-0.6-0.3-0.9c-0.1-0.3-0.2-0.6-0.2-0.9c-0.1-0.3-0.1-0.6-0.2-0.9
		c-0.1-0.3-0.1-0.6-0.2-0.9c-0.2-1.2-0.3-2.6-0.5-3.9c-0.1-1.4-0.3-2.8-0.4-4.4c-0.1-0.8-0.2-1.5-0.3-2.3c-0.1-0.8-0.3-1.5-0.4-2.2
		c-0.3-1.5-0.7-2.9-1-4.2c-0.8-2.8-1.3-4.3-1.3-4.3l0.5-2.2c0,0,0.2,0,0.7,0.1c0.5,0.1,1.2,0.2,2,0.4c0.8,0.3,1.9,0.5,3.1,1
		c0.6,0.2,1.2,0.5,1.9,0.7c0.6,0.3,1.3,0.6,2,1c1.3,0.7,2.8,1.6,4.2,2.7c1.4,1,2.9,2.2,4.2,3.6c0.7,0.7,1.3,1.4,2,2.1
		c0.6,0.7,1.3,1.5,1.9,2.3c1.2,1.6,2.4,3.2,3.4,5c1,1.7,2,3.5,2.8,5.3c0.8,1.8,1.6,3.6,2.3,5.3c0.7,1.7,1.2,3.5,1.7,5.1
		c0.5,1.6,0.9,3.2,1.3,4.6c0.7,2.9,1.1,5.4,1.3,7.1c0.2,1.7,0.3,2.7,0.3,2.7L417,276.7z"/>
</g>
</svg>
