<?xml version="1.0" encoding="utf-8"?>
<!-- Generator: Adobe Illustrator 18.0.0, SVG Export Plug-In . SVG Version: 6.00 Build 0)  -->
<!DOCTYPE svg PUBLIC "-//W3C//DTD SVG 1.1//EN" "http://www.w3.org/Graphics/SVG/1.1/DTD/svg11.dtd">
<svg version="1.1" id="Layer_1" xmlns="http://www.w3.org/2000/svg" xmlns:xlink="http://www.w3.org/1999/xlink" x="0px" y="0px"
	 viewBox="0 0 80 80" enable-background="new 0 0 80 80" xml:space="preserve">
<path fill="#FFFFFF" d="M24.7,15.2C24.7,6.8,31.6,0,40,0s15.3,6.8,15.3,15.3S48.4,30.5,40,30.5S24.7,23.6,24.7,15.2z M61.3,36.4
	c0-3.6-2.9-6.5-6.5-6.5l0,0c-2.2,3.2-5.6,5.3-9.4,6c-3.6,0.6-7.2,0.6-10.8,0c-3.8-0.7-7.2-2.8-9.4-6l0,0c-3.6,0-6.5,2.9-6.5,6.5
	l-3.6,37c0,3.6,2.9,6.6,6.5,6.6h36.7c3.6,0,6.5-3,6.5-6.6L61.3,36.4z"/>
</svg>
