<?xml version="1.0" encoding="utf-8"?>
<!-- Generator: Adobe Illustrator 18.0.0, SVG Export Plug-In . SVG Version: 6.00 Build 0)  -->
<!DOCTYPE svg PUBLIC "-//W3C//DTD SVG 1.1//EN" "http://www.w3.org/Graphics/SVG/1.1/DTD/svg11.dtd">
<svg version="1.1" id="Layer_1" xmlns="http://www.w3.org/2000/svg" xmlns:xlink="http://www.w3.org/1999/xlink" x="0px" y="0px"
	 viewBox="0 0 80 80" enable-background="new 0 0 80 80" xml:space="preserve">
<rect x="38.2" y="0.7" fill="#FFFFFF" width="3.5" height="30.8"/>
<polygon fill="#FFFFFF" points="40,42.1 35.4,34.1 30.7,26 40,26 49.3,26 44.6,34.1 "/>
<rect x="54.8" y="44.5" transform="matrix(0.7483 -0.6634 0.6634 0.7483 -25.4719 52.6159)" fill="#FFFFFF" width="3.5" height="30.8"/>
<polygon fill="#FFFFFF" points="73.8,79.3 65,76.4 56.3,73.5 63.2,67.3 70.1,61.2 72,70.2 "/>
<rect x="21.6" y="44.5" transform="matrix(-0.7483 -0.6634 0.6634 -0.7483 1.1922 120.201)" fill="#FFFFFF" width="3.5" height="30.8"/>
<polygon fill="#FFFFFF" points="6.2,79.3 15,76.4 23.7,73.5 16.8,67.3 9.9,61.2 8,70.2 "/>
</svg>
