<?xml version="1.0" encoding="utf-8"?>
<!-- Generator: Adobe Illustrator 18.0.0, SVG Export Plug-In . SVG Version: 6.00 Build 0)  -->
<!DOCTYPE svg PUBLIC "-//W3C//DTD SVG 1.1//EN" "http://www.w3.org/Graphics/SVG/1.1/DTD/svg11.dtd">
<svg version="1.1" id="Layer_1" xmlns="http://www.w3.org/2000/svg" xmlns:xlink="http://www.w3.org/1999/xlink" x="0px" y="0px"
	 viewBox="0 0 80 80" enable-background="new 0 0 80 80" xml:space="preserve">
<path fill="#FFFFFF" d="M18.5,20.6L22,77.5c0,1,0.8,1.8,1.8,1.8h32.3c1,0,1.8-0.8,1.8-1.8l3.6-56.9H18.5z M30.6,71.6
	c-1,0.1-1.9-0.7-2-1.7l-2.5-39.6c-0.1-1,0.7-1.9,1.7-2c1-0.1,1.9,0.7,2,1.7l2.5,39.6C32.4,70.6,31.6,71.5,30.6,71.6z M41.9,69.8
	c0,1-0.8,1.9-1.9,1.9c-1,0-1.9-0.8-1.9-1.9V30.1c0-1,0.8-1.9,1.9-1.9c1,0,1.9,0.8,1.9,1.9V69.8z M51.5,69.9c-0.1,1-1,1.8-2,1.7
	c-1-0.1-1.8-1-1.7-2l2.5-39.6c0.1-1,1-1.8,2-1.7c1,0.1,1.8,1,1.7,2L51.5,69.9z"/>
<path fill="#FFFFFF" d="M64.7,18.5H15.3l2.2-6.9c0.3-1,1.4-1.8,2.6-1.8h39.8c1.2,0,2.3,0.7,2.6,1.8L64.7,18.5z"/>
<path fill="#FFFFFF" d="M53.7,3.8c-0.3-1.8-1.9-3.1-3.7-3.1H30.1c-1.8,0-3.4,1.3-3.7,3.1l-1.8,9.2H29l1.1-5.6
	c0.3-1.8,1.9-3.1,3.7-3.1h12.3c1.8,0,3.4,1.3,3.7,3.1l1.1,5.6h4.5L53.7,3.8z"/>
</svg>
